<svg width="50" height="50" viewBox="0 0 50 50" fill="none" xmlns="http://www.w3.org/2000/svg">
<mask id="mask0_160_30838" style="mask-type:luminance" maskUnits="userSpaceOnUse" x="1" y="1" width="48" height="48">
<path d="M48.4407 1.5625H1.46826V48.535H48.4407V1.5625Z" fill="white"/>
</mask>
<g mask="url(#mask0_160_30838)">
<path fill-rule="evenodd" clip-rule="evenodd" d="M28.4361 4.2854C28.1485 3.80609 27.7171 3.37471 27.094 3.32678L27.2857 3.61437L27.3816 3.80609L27.7171 4.4292L27.8129 4.52506C28.0526 5.10023 28.1964 5.67541 28.2443 6.29851C28.2443 6.63403 28.1485 6.92161 28.0526 7.25713C27.9088 6.4423 27.4774 5.8192 26.9981 5.24403C26.4894 4.72327 25.8656 4.32925 25.1767 4.09368C24.2324 3.71842 23.1973 3.63494 22.205 3.85402C21.8216 3.90196 21.486 4.09368 21.1026 4.2854C20.7671 4.47713 20.4795 4.76471 20.1919 5.00437C19.4957 5.69652 18.9563 6.53015 18.6102 7.44886C18.3226 8.16782 17.9871 8.88679 17.5557 9.55782C17.2202 10.133 16.7409 10.6602 16.2616 11.0916L14.9195 12.0023C14.1314 12.4981 13.3639 13.0258 12.6188 13.584C11.5164 14.5427 10.7015 15.8368 10.2702 17.2747C10.0784 17.9937 9.93465 18.7606 10.0305 19.4796C10.1264 19.863 10.2222 20.1985 10.414 20.534V20.9175C10.2222 21.8282 10.1743 22.7868 10.4619 23.6975C10.7774 24.7726 11.3164 25.7689 12.0436 26.6213L12.7147 27.532C13.0022 28.0113 13.2419 28.5385 13.2898 29.1137C13.2898 29.5451 13.146 29.9285 12.8105 30.2161C12.5526 30.4427 12.2372 30.5939 11.899 30.6531C11.5608 30.7123 11.2128 30.6772 10.8933 30.5516L10.6536 30.4078L10.4619 30.312L10.414 30.4078C10.366 30.4558 10.3181 30.5516 10.366 30.6475L10.7015 31.2706C10.9891 31.6541 11.3247 31.9416 11.756 32.1334C12.0915 32.3251 12.475 32.373 12.8584 32.2772C13.0981 32.2292 13.2898 32.1334 13.4816 31.9896C13.4816 32.4689 13.6253 32.9482 13.7691 33.3796C13.9609 33.9068 14.2484 34.4341 14.6798 34.8175C15.0633 35.201 15.5426 35.3927 16.0219 35.5365C16.4533 35.6803 16.8847 35.6803 17.316 35.5844C17.4119 35.5365 17.4119 35.4885 17.4119 35.3927L17.2681 35.0572L17.2202 34.9613L16.8367 34.0027C17.6995 34.6258 18.706 34.9134 19.7605 35.0092C20.4316 35.0572 21.1505 34.9613 21.7736 34.7216C21.9174 34.6737 22.1091 34.5779 22.1571 34.4341C22.2529 34.2903 22.1571 34.1465 22.1091 34.0027L21.9174 33.2837L21.8695 33.1399C22.3009 33.4275 22.7323 33.6192 23.2595 33.6192C23.8347 33.6192 24.4578 33.3796 24.7933 32.9003L24.9371 32.8523C24.6973 30.7381 24.1983 28.6615 23.4512 26.6692C23.1272 25.8042 22.7261 24.9701 22.2529 24.1768L22.1571 23.8892C22.1571 23.1703 22.0612 22.3554 21.6298 21.7803C21.9654 21.253 22.0133 20.582 22.0612 20.0068C22.0612 19.5275 22.0612 19.0482 21.8216 18.6168L22.0133 18.5689L22.3967 18.5209C22.4926 18.473 22.5405 18.3292 22.5885 18.2334C22.9094 16.9013 23.3923 15.6135 24.0264 14.3989L24.3619 13.7278C24.4578 13.584 24.4578 13.4402 24.5057 13.2485V13.0568L24.4098 12.3858L24.3619 11.9544L25.3205 12.242H25.7998C28.2223 11.8249 30.6924 11.7603 33.1333 12.0502L33.4688 12.1461L33.7085 12.242C33.8043 12.242 33.9481 12.194 33.9961 12.0982C34.1399 11.9544 34.1878 11.7627 34.2357 11.5709L34.3795 11.6668L34.8109 12.0023L35.1464 12.194C35.3675 12.2354 35.5927 12.2514 35.8174 12.242L36.5843 13.0089L36.6323 13.0568C37.6424 14.2117 38.5112 15.4828 39.2205 16.8433C39.4123 16.9871 39.6519 16.8913 39.7478 16.6996C40.0833 15.9327 40.1312 15.0699 39.9874 14.2551C39.7212 13.038 39.085 11.933 38.1661 11.0916C37.8785 10.7561 37.495 10.4685 37.1116 10.1809L35.0985 9.12644C34.0919 8.69506 33.0374 8.35955 31.983 8.16782C30.7847 7.92817 29.5864 7.92817 28.3402 7.9761C28.8674 7.44886 29.0112 6.72989 29.0112 6.01092C29.0112 5.38782 28.7716 4.81265 28.4361 4.2854ZM16.0698 12.8171C16.645 12.1461 17.2202 11.4751 17.6516 10.6602L16.8847 11.4751C16.4053 11.9064 15.8781 12.194 15.3509 12.5296L14.8236 12.8651L14.6798 12.913C14.0567 13.2964 13.3857 13.7278 12.8584 14.2071C11.804 15.1178 11.085 16.364 10.7495 17.7061C10.6057 18.4251 10.5098 19.192 10.7015 19.9109C10.9891 19.0482 11.4205 18.1854 11.8998 17.4185C12.5229 16.4599 13.2898 15.5492 14.1047 14.7344L15.0153 13.8237L16.0698 12.8171Z" fill="#262626"/>
<path d="M29.8258 8.64839C31.1678 8.69632 32.5099 8.93597 33.852 9.36735C35.7281 9.89701 37.3994 10.9833 38.6451 12.4829C39.5558 13.6812 40.131 15.1191 40.3227 16.6049C40.5814 18.2062 40.6136 19.8358 40.4185 21.446L40.1789 23.0756L39.9872 24.0343C39.9392 24.1301 39.9392 24.1301 39.8434 24.1301C39.7475 23.9384 39.7475 23.7467 39.7475 23.555C39.6996 22.836 39.7954 22.165 39.8434 21.446C39.8913 20.2956 39.9872 19.1453 39.8913 17.995L39.6037 15.8381C39.2682 14.496 38.6451 13.2498 37.6865 12.2432C36.8237 11.3805 35.7692 10.6615 34.6668 10.1822C33.6123 9.7508 32.5578 9.46322 31.4554 9.27149C30.5927 9.1277 29.7299 9.07977 28.8671 9.07977C26.7403 9.04494 24.6361 9.52165 22.732 10.4698C22.1089 10.9011 21.5337 11.4284 21.0544 12.0036C19.5795 13.9396 18.6673 16.245 18.4182 18.666C18.3702 19.8163 18.4182 20.9187 18.8016 22.0212L19.1371 22.7401L19.7123 22.7881L19.7602 22.9319C19.6164 23.0277 19.4247 23.0277 19.233 23.0756C18.7537 23.1715 18.2744 23.3632 17.843 23.6508C17.5075 23.8905 17.172 24.1781 16.9802 24.5615C16.7406 25.0408 16.8364 25.616 16.9323 26.1432C17.172 27.0539 17.7471 27.9167 18.514 28.4919C19.0413 28.9232 19.7123 29.1629 20.3833 29.2588C20.8627 29.3546 21.342 29.2588 21.8213 29.2108C22.0609 29.4025 22.2047 29.786 22.3485 30.0257L23.2113 31.3198C23.991 32.428 25.0968 33.2657 26.3747 33.7163C27.4292 34.1477 28.5316 34.3874 29.634 34.627L31.5992 35.0105L32.414 35.2501V35.4419H31.8389C30.7614 35.3818 29.6888 35.2537 28.6275 35.0584C27.2021 34.7748 25.8386 34.2391 24.6013 33.4767C24.074 33.1412 23.5947 32.7098 23.2113 32.1826C23.5433 34.1803 23.2764 36.2317 22.4444 38.0781C21.7254 39.3722 20.5271 40.3788 19.0892 40.8102C18.9454 40.8581 18.7537 40.906 18.6099 40.8581C18.514 40.8581 18.514 40.8102 18.514 40.7143C18.562 40.5705 18.7058 40.4746 18.8016 40.4267C19.3768 40.0433 20.0478 39.7557 20.623 39.3243C21.2461 38.797 21.7733 38.2219 22.1089 37.5029C22.3964 36.7839 22.5882 35.9691 22.684 35.1543C22.7799 34.5312 22.8278 33.9081 22.7799 33.237L22.5882 31.4157L21.7254 29.6901L20.8147 29.8819C20.1111 29.9023 19.4136 29.7464 18.7857 29.4283C18.1578 29.1101 17.6195 28.6399 17.2199 28.0605C16.5951 27.2689 16.2572 26.2889 16.2613 25.2805C16.2613 24.8491 16.4051 24.4177 16.6447 24.0822C16.8844 23.7467 17.2199 23.4591 17.5554 23.2674C17.7951 23.0756 18.1306 22.9798 18.4182 22.8839L17.9868 21.7336C17.7471 20.6791 17.7471 19.5767 17.8909 18.5222C18.2048 15.9047 19.2515 13.4291 20.9106 11.3805C21.342 10.9011 21.7733 10.4698 22.3006 10.1343C22.6361 9.94253 22.9716 9.8946 23.2592 9.70287C25.3202 8.79218 27.573 8.50459 29.8258 8.64839Z" fill="#262626"/>
<path d="M28.8669 9.07842C30.8585 9.00434 32.8411 9.38119 34.6666 10.1808C35.769 10.6601 36.8235 11.3791 37.6862 12.2419C38.6449 13.2484 39.268 14.4946 39.6035 15.8367L39.8911 17.9936C39.9869 19.144 39.8911 20.2943 39.8431 21.4446C39.7952 22.1636 39.6993 22.8346 39.7473 23.5536C39.7473 23.7453 39.7473 23.9371 39.8431 24.1288L39.7952 25.0874C39.6993 25.3271 39.6993 25.5667 39.6993 25.8543C39.6035 27.0046 39.6035 28.2029 39.4118 29.4012C39.3638 29.9764 39.268 30.5995 39.0283 31.1267C38.8845 31.5581 38.6449 31.9415 38.3093 32.2771C37.7342 32.9002 37.0152 33.4274 36.2483 33.8588C35.3376 34.386 34.379 34.6257 33.4683 35.0091C33.2286 35.105 32.989 35.2009 32.8452 35.3926C33.2286 35.4405 33.5642 35.3926 33.9476 35.2967C33.708 35.8719 33.66 36.4471 33.66 37.0222C33.66 37.2619 33.6121 37.5495 33.708 37.7891C33.8517 38.0288 34.0914 38.2205 34.3311 38.3643L36.0086 38.9874C37.0631 39.3709 38.0697 39.8502 39.1242 40.2816C39.22 40.4733 39.3638 40.6171 39.4118 40.8567C39.6993 41.384 39.7473 41.9591 39.5555 42.5343C39.3159 43.1574 38.8366 43.6847 38.2614 44.0202C37.4945 44.5474 36.5359 44.9309 35.6252 45.1705C31.8983 45.9668 28.0343 45.8517 24.3614 44.835C23.4028 44.4995 22.4441 44.164 21.5814 43.6847C20.9104 43.3012 20.1914 42.8219 19.6641 42.1988C19.3766 41.8154 19.1369 41.2881 19.089 40.8088C20.2113 40.4662 21.2046 39.7939 21.9398 38.8793C22.6749 37.9646 23.1179 36.8499 23.211 35.6802C23.4028 34.5298 23.4028 33.3316 23.211 32.1812C23.5945 32.7084 24.0738 33.1398 24.601 33.4753L25.8952 34.1464C27.7743 34.9571 29.7926 35.3965 31.8386 35.4405H32.4138V35.2488L31.599 35.0091L29.6338 34.6257C28.5314 34.386 27.429 34.1464 26.3745 33.715C25.7514 33.4274 25.0804 33.0919 24.5052 32.7084C24.0259 32.2771 23.5945 31.8457 23.211 31.3184L22.3483 30.0243C22.2045 29.7847 22.0607 29.4012 21.821 29.2095C21.3417 29.2574 20.8624 29.3533 20.3831 29.2574C19.7121 29.1615 19.041 28.9219 18.5138 28.4905C17.7479 27.898 17.1932 27.0744 16.9321 26.1419C16.8362 25.6146 16.7403 25.0395 16.98 24.5602C17.1717 24.1767 17.5072 23.8891 17.8428 23.6495C18.2741 23.3619 18.7535 23.1702 19.2328 23.0743C19.4245 23.0264 19.6162 23.0264 19.76 22.9305L19.7121 22.7867L19.1369 22.7388L18.8014 22.0198C18.4179 20.9174 18.37 19.815 18.4659 18.6646C18.701 16.2484 19.5964 13.9435 21.0541 12.0022C21.5335 11.427 22.1086 10.8998 22.7317 10.4684C24.6318 9.50372 26.7361 9.01052 28.8669 9.03049V9.07842Z" fill="#FFDECC"/>
<path d="M18.563 24.7981C18.7547 24.7981 18.8985 24.7981 19.0902 24.894C19.3299 24.9419 19.6175 25.0857 19.7613 25.2774C19.8571 25.4212 19.8571 25.6129 19.7613 25.7567C19.5216 26.0443 19.1861 26.236 18.9944 26.5236C19.282 26.7153 19.6654 26.8112 20.0009 26.955C20.1926 27.0029 20.3844 27.0988 20.5282 27.2426L20.5761 27.3864L20.1926 27.2905L19.0423 26.955C18.8506 26.9071 18.6589 26.8112 18.6109 26.6195C18.563 26.4757 18.6589 26.284 18.7547 26.1402L19.4737 25.5171C19.282 25.1815 18.7547 25.1336 18.563 24.7981ZM39.7965 25.0857L39.8923 25.2295L39.9882 25.9964C40.0876 27.4182 40.0555 28.8463 39.8923 30.2622C39.7965 30.7895 39.6527 31.3647 39.413 31.844C38.1413 33.5078 36.355 34.7043 34.3323 35.2471C34.2844 35.9181 34.1885 36.7329 34.2365 37.4998L34.4761 37.7395C34.8596 38.0271 35.3389 38.1709 35.7703 38.3147C36.8914 38.6726 37.9815 39.1214 39.0296 39.6567C39.3651 39.8485 39.6527 40.0881 39.8923 40.3757C39.6527 40.4236 39.413 40.3278 39.1254 40.2798C38.0709 39.8485 37.0644 39.3691 36.0099 38.9857L34.3323 38.3626C34.0927 38.2188 33.853 38.0271 33.7092 37.7874C33.6134 37.5478 33.6613 37.2602 33.6613 37.0205C33.6613 36.4454 33.7092 35.8702 33.9489 35.295C33.5654 35.3909 33.2299 35.4388 32.8465 35.3909C32.9902 35.1991 33.2299 35.1033 33.4696 35.0074C34.3802 34.624 35.3389 34.3843 36.2496 33.8571C37.0165 33.4257 37.7354 32.8984 38.3106 32.2753C38.6461 31.9398 38.8858 31.5564 39.0296 31.125C39.2692 30.5978 39.3651 29.9747 39.413 29.3995C39.6047 28.2012 39.6047 27.0029 39.7006 25.8526C39.7006 25.565 39.7006 25.3253 39.7965 25.0857Z" fill="#262626"/>
<path d="M38.1658 20.103C38.5493 20.0551 38.9327 20.151 39.2203 20.3906C39.3641 20.5344 39.5079 20.7262 39.5079 20.9179C39.5558 21.1575 39.3162 21.3972 39.0765 21.3972C38.8848 21.3493 38.7889 21.2534 38.6931 21.1096L38.2138 20.7741C38.6451 21.541 38.4055 22.5955 37.7345 23.1227C37.3989 23.4103 36.8717 23.5062 36.5362 23.1706C36.2486 22.931 36.1527 22.5955 36.1527 22.212C36.0569 22.4517 35.9131 22.6434 35.8651 22.8831C35.8172 22.9789 35.8172 23.0748 35.7213 23.0748C35.6255 22.8351 35.6734 22.5475 35.7693 22.2599C36.0569 21.493 36.5841 20.822 37.3031 20.4386C37.5427 20.2468 37.8303 20.151 38.1658 20.103ZM28.0044 20.6303C29.2986 20.6782 30.5448 21.493 31.072 22.6434C31.1679 22.7393 31.2638 22.931 31.12 23.0748C30.9762 23.0748 30.8803 22.8831 30.7844 22.7872C30.5927 22.4037 30.3051 22.1162 29.9696 21.8765C30.0655 22.4037 30.0655 22.8831 29.7779 23.3624C29.5382 23.7458 29.011 23.9855 28.5796 23.9375C28.2441 23.8417 27.9086 23.6979 27.6689 23.4103C27.3813 23.1227 27.2855 22.6434 27.2855 22.2599C27.2855 21.9244 27.4293 21.6368 27.5731 21.3972C26.902 21.541 26.231 21.8286 25.7038 22.2599C25.56 22.3079 25.4641 22.4037 25.3203 22.4037C25.1286 22.3558 25.0327 22.212 25.0327 22.0203C25.0327 21.8765 25.1286 21.7327 25.2244 21.6368C25.6079 21.3493 25.9913 21.0617 26.4706 20.8699C26.95 20.6782 27.4772 20.5824 28.0044 20.6303Z" fill="#262626"/>
<path d="M28.4848 15.5002C29.2038 15.5482 30.0186 15.7399 30.5938 16.2192C30.7855 16.363 30.9772 16.5547 31.0252 16.7464C31.0731 16.8902 31.0731 16.9861 30.9293 17.034C30.7855 17.034 30.6417 16.8902 30.5458 16.7944C30.0186 16.4109 29.3955 16.1713 28.7245 16.1713C28.341 16.1713 28.0055 16.2671 27.622 16.363C26.9031 16.5068 26.232 16.8902 25.8007 17.4654C25.6569 17.6092 25.561 17.8009 25.3214 17.8489C25.0817 17.8968 24.842 17.7051 24.842 17.4654C24.7941 17.2737 24.9379 17.082 25.0338 16.9382C25.6089 16.2192 26.4717 15.7399 27.3824 15.5482C27.7179 15.4523 28.1014 15.4523 28.4848 15.5002ZM38.3107 15.9795C38.5503 16.0754 38.79 16.3151 38.9338 16.5068C39.0776 16.6506 39.1734 16.8423 39.1734 17.034C39.1734 17.3216 38.8859 17.5133 38.5983 17.4175C38.3586 17.3216 38.3107 17.082 38.119 16.8902C37.9272 16.7464 37.6876 16.5547 37.4958 16.5068C36.9207 16.3151 36.3455 16.5547 35.9621 16.9382L35.5307 17.3695C35.5307 17.034 35.7224 16.7464 35.9621 16.5547C36.5372 15.9316 37.4958 15.692 38.3107 15.9795Z" fill="#262626"/>
<path d="M35.1943 26.4778C35.1943 26.6216 35.0984 26.7654 35.0026 26.9092C34.8108 27.1967 34.4753 27.3885 34.1398 27.4843C33.9001 27.5323 33.7084 27.3885 33.5167 27.4843C33.325 27.4843 33.1332 27.5323 32.9415 27.4364C32.8457 27.3885 32.8457 27.2447 32.9415 27.1488C33.0853 26.9571 33.325 26.8133 33.5167 26.8133C33.7084 26.7654 33.8522 26.7654 33.996 26.9092L34.0439 27.2447C34.2836 27.1488 34.3795 27.005 34.5712 26.8612L35.1943 26.4778Z" fill="#262626"/>
<path d="M28.9151 29.0625C29.0589 29.0625 29.1548 29.1584 29.2506 29.2542L29.8738 29.5897C30.401 29.8294 30.9762 29.9732 31.5034 30.117C32.2224 30.3566 32.9413 30.4046 33.6603 30.4046C34.2355 30.4525 34.7627 30.5004 35.29 30.4525L35.4817 30.5484C34.6189 30.9797 33.5165 31.0756 32.5579 31.0277C31.4555 30.9797 30.3531 30.6442 29.3944 30.1649C29.1069 29.9732 28.7713 29.7815 28.7234 29.398C28.6755 29.2542 28.7713 29.0625 28.9151 29.0625Z" fill="#262626"/>
<path d="M30.449 7.97876C32.0567 8.07071 33.6332 8.46078 35.0983 9.12911C35.7693 9.46463 36.4883 9.80014 37.1114 10.2315C37.4949 10.4712 37.8783 10.7588 38.1659 11.0943L39.2204 12.2926C38.789 12.4843 38.3576 12.4364 37.9262 12.3884C37.1114 12.2926 36.2966 12.1967 35.4818 12.2446L35.0983 12.1967L34.7628 11.957L34.1876 11.5736C34.1876 11.7653 34.1397 11.9091 34.0438 12.1008C33.948 12.1967 33.8521 12.2446 33.7083 12.2446C33.5166 12.1967 33.3728 12.1008 33.1811 12.1008C30.7137 11.7372 28.2031 11.7858 25.7517 12.2446H25.2245L24.3617 11.957C24.4097 12.3884 24.5535 12.8198 24.5055 13.2033C24.4576 13.395 24.4576 13.5867 24.3617 13.7305C24.0262 14.4015 23.6428 15.0246 23.3552 15.7436C23.0197 16.5584 22.7321 17.4212 22.5404 18.2839C22.5404 18.3798 22.4924 18.4757 22.3966 18.5236L21.8214 18.6195C22.061 19.0508 22.109 19.5781 22.061 20.0574C22.0131 20.6326 21.9173 21.3036 21.6297 21.7829C21.9652 22.2143 22.109 22.7895 22.109 23.3646C22.1569 24.2753 22.109 25.1381 21.7735 26.0009C21.6776 26.1926 21.5338 26.4322 21.2941 26.5281C21.2462 26.576 21.1024 26.576 21.1024 26.4802C21.0066 26.2884 21.0066 26.0488 20.9586 25.8571C20.8628 25.1381 20.5273 24.4671 20 23.9398C19.6166 23.6043 19.1852 23.2688 18.7538 23.0291C18.4662 22.9333 18.2266 22.8374 17.9869 22.6457L17.6993 22.2622C17.1241 20.7284 16.9324 19.0508 17.1241 17.4212C17.3279 15.5112 17.9322 13.6656 18.8976 12.005C19.3769 11.2381 19.9521 10.567 20.5752 9.94394C21.0545 9.51256 21.5338 9.12911 22.061 8.84152L22.7321 8.60187L24.2659 8.07462L25.1766 7.97876H27.2376C28.34 7.97876 29.3466 7.8829 30.449 7.97876Z" fill="#262626"/>
</g>
</svg>
