<svg width="293" height="317" viewBox="0 0 293 317" fill="none" xmlns="http://www.w3.org/2000/svg">
<g opacity="0.9">
<g filter="url(#filter0_d_160_30609)">
<path d="M87.3575 232.709C95.3793 232.161 101.438 225.213 100.89 217.192C100.341 209.17 93.3938 203.111 85.372 203.66C77.3501 204.208 71.2916 211.155 71.8399 219.177C72.3882 227.199 79.3356 233.257 87.3575 232.709Z" fill="#FFF5F0" fill-opacity="0.5" shape-rendering="crispEdges"/>
<path d="M85.3037 202.662C93.8765 202.076 101.301 208.551 101.887 217.123C102.473 225.696 95.9984 233.121 87.4255 233.707C78.8528 234.293 71.4282 227.818 70.8422 219.245C70.2564 210.672 76.7309 203.248 85.3037 202.662Z" stroke="#262626" stroke-width="2" shape-rendering="crispEdges"/>
</g>
<g filter="url(#filter1_d_160_30609)">
<path d="M129.084 258.462C136.832 258.462 143.112 252.181 143.112 244.433C143.112 236.685 136.832 230.404 129.084 230.404C121.336 230.404 115.055 236.685 115.055 244.433C115.055 252.181 121.336 258.462 129.084 258.462Z" fill="#FFF5F0" fill-opacity="0.5" shape-rendering="crispEdges"/>
<path d="M129.084 229.404C137.384 229.404 144.112 236.133 144.112 244.433C144.112 252.733 137.384 259.462 129.084 259.462C120.784 259.462 114.055 252.734 114.055 244.433C114.055 236.133 120.784 229.404 129.084 229.404Z" stroke="#262626" stroke-width="2" shape-rendering="crispEdges"/>
</g>
<g filter="url(#filter2_d_160_30609)">
<path d="M163.859 248.523C163.859 241.064 169.899 235.024 177.358 235.024C184.818 235.024 190.858 241.064 190.858 248.523C190.858 255.983 184.818 262.022 177.358 262.022C169.899 262.022 163.859 255.983 163.859 248.523Z" fill="#FFF5F0" fill-opacity="0.5" shape-rendering="crispEdges"/>
<path d="M177.358 234.024C185.37 234.024 191.857 240.511 191.857 248.523C191.857 256.535 185.37 263.022 177.358 263.022C169.347 263.022 162.859 256.535 162.859 248.523C162.859 240.511 169.347 234.024 177.358 234.024Z" stroke="#262626" stroke-width="2" shape-rendering="crispEdges"/>
</g>
<g filter="url(#filter3_d_160_30609)">
<path d="M210.121 230.531C210.121 223.368 215.928 217.541 223.111 217.541C230.295 217.541 236.102 223.347 236.102 230.531C236.102 237.715 230.295 243.522 223.111 243.522C215.928 243.522 210.121 237.715 210.121 230.531Z" fill="#FFF5F0" fill-opacity="0.5" shape-rendering="crispEdges"/>
<path d="M223.111 216.541C230.848 216.541 237.101 222.795 237.102 230.531C237.102 238.267 230.848 244.522 223.111 244.522C215.375 244.522 209.121 238.267 209.121 230.531C209.121 222.817 215.374 216.541 223.111 216.541Z" stroke="#262626" stroke-width="2" shape-rendering="crispEdges"/>
</g>
<g filter="url(#filter4_d_160_30609)">
<path d="M244.769 192.662C244.769 185.774 250.342 180.201 257.23 180.201C264.117 180.201 269.691 185.774 269.691 192.662C269.691 199.549 264.117 205.122 257.23 205.122C250.342 205.122 244.769 199.549 244.769 192.662Z" fill="#FFF5F0" fill-opacity="0.5" shape-rendering="crispEdges"/>
<path d="M257.23 179.201C264.669 179.201 270.691 185.222 270.691 192.662C270.691 200.101 264.669 206.123 257.23 206.123C249.79 206.123 243.769 200.101 243.769 192.662C243.769 185.222 249.79 179.201 257.23 179.201Z" stroke="#262626" stroke-width="2" shape-rendering="crispEdges"/>
</g>
<g filter="url(#filter5_d_160_30609)">
<path d="M260.049 145.977C260.049 139.386 265.389 134.046 271.98 134.046C278.57 134.046 283.911 139.386 283.911 145.977C283.911 152.567 278.57 157.908 271.98 157.908C265.389 157.908 260.049 152.567 260.049 145.977Z" fill="#FFF5F0" fill-opacity="0.5" shape-rendering="crispEdges"/>
<path d="M271.979 133.046C279.122 133.046 284.91 138.834 284.91 145.976C284.91 153.119 279.122 158.908 271.979 158.908C264.837 158.908 259.049 153.119 259.049 145.976C259.049 138.834 264.837 133.046 271.979 133.046Z" stroke="#262626" stroke-width="2" shape-rendering="crispEdges"/>
</g>
<g filter="url(#filter6_d_160_30609)">
<path d="M255.429 97.7019C255.429 91.3867 260.536 86.2795 266.852 86.2795C273.167 86.2795 278.274 91.3867 278.274 97.7019C278.274 104.017 273.167 109.124 266.852 109.124C260.536 109.124 255.429 104.017 255.429 97.7019Z" fill="#FFF5F0" fill-opacity="0.5" shape-rendering="crispEdges"/>
<path d="M266.851 85.2795C273.718 85.2795 279.274 90.8342 279.274 97.7014C279.274 104.569 273.718 110.124 266.851 110.124C259.984 110.124 254.429 104.569 254.429 97.7014C254.429 90.8344 259.984 85.2798 266.851 85.2795Z" stroke="#262626" stroke-width="2" shape-rendering="crispEdges"/>
</g>
<g filter="url(#filter7_d_160_30609)">
<path d="M230.91 54.4284C230.91 48.41 235.784 43.5359 241.802 43.5359C247.821 43.5359 252.695 48.41 252.695 54.4284C252.695 60.4469 247.821 65.321 241.802 65.321C235.784 65.321 230.91 60.4469 230.91 54.4284Z" fill="#FFF5F0" fill-opacity="0.5" shape-rendering="crispEdges"/>
<path d="M241.802 42.5359C248.373 42.536 253.695 47.8578 253.695 54.4285C253.695 60.9991 248.373 66.321 241.802 66.321C235.232 66.321 229.91 60.9992 229.91 54.4285C229.91 47.8578 235.232 42.5359 241.802 42.5359Z" stroke="#262626" stroke-width="2" shape-rendering="crispEdges"/>
</g>
<g filter="url(#filter8_d_160_30609)">
<path d="M190.582 24.2089C190.582 18.4872 195.223 13.8462 200.945 13.8462C206.667 13.8462 211.308 18.4872 211.308 24.2089C211.308 29.9307 206.667 34.5717 200.945 34.5717C195.223 34.5717 190.582 29.9307 190.582 24.2089Z" fill="#FFF5F0" fill-opacity="0.5" shape-rendering="crispEdges"/>
<path d="M200.944 12.8462C207.218 12.8462 212.307 17.9346 212.308 24.2085C212.308 30.4825 207.218 35.5718 200.944 35.5718C194.671 35.5715 189.582 30.4824 189.582 24.2085C189.582 17.9348 194.671 12.8464 200.944 12.8462Z" stroke="#262626" stroke-width="2" shape-rendering="crispEdges"/>
</g>
<g filter="url(#filter9_d_160_30609)">
<path d="M143.833 11.8541C143.833 6.40787 148.241 2 153.687 2C159.133 2 163.541 6.40787 163.541 11.8541C163.541 17.3004 159.133 21.7083 153.687 21.7083C148.241 21.7083 143.833 17.3004 143.833 11.8541Z" fill="#FFF5F0" fill-opacity="0.5" shape-rendering="crispEdges"/>
<path d="M153.688 1C159.686 1.00016 164.541 5.85605 164.541 11.8545C164.541 17.8528 159.686 22.7078 153.688 22.708C147.689 22.708 142.833 17.8529 142.833 11.8545C142.833 5.85593 147.689 1 153.688 1Z" stroke="#262626" stroke-width="2" shape-rendering="crispEdges"/>
</g>
<g filter="url(#filter10_d_160_30609)">
<path d="M96.0669 17.4064C96.0669 12.2568 100.242 8.08203 105.391 8.08203C110.541 8.08203 114.716 12.2568 114.716 17.4064C114.716 22.556 110.541 26.7307 105.391 26.7307C100.242 26.7307 96.0669 22.556 96.0669 17.4064Z" fill="#FFF5F0" fill-opacity="0.5" shape-rendering="crispEdges"/>
<path d="M105.391 7.08203C111.093 7.08203 115.715 11.7044 115.715 17.4062C115.715 23.1081 111.093 27.7305 105.391 27.7305C99.6893 27.7304 95.0669 23.1081 95.0669 17.4062C95.067 11.7045 99.6893 7.08206 105.391 7.08203Z" stroke="#262626" stroke-width="2" shape-rendering="crispEdges"/>
</g>
<g filter="url(#filter11_d_160_30609)">
<path d="M52.646 40.8866C52.646 36.0125 56.5876 32.0708 61.4617 32.0708C66.3358 32.0708 70.2774 36.0125 70.2774 40.8866C70.2774 45.7606 66.3358 49.7023 61.4617 49.7023C56.5876 49.7023 52.646 45.7606 52.646 40.8866Z" fill="#FFF5F0" fill-opacity="0.5" shape-rendering="crispEdges"/>
<path d="M61.4614 31.0708C66.8877 31.0708 71.2777 35.46 71.2778 40.8862C71.2778 46.3126 66.8878 50.7026 61.4614 50.7026C56.0352 50.7025 51.646 46.3125 51.646 40.8862C51.6462 35.4601 56.0353 31.0709 61.4614 31.0708Z" stroke="#262626" stroke-width="2" shape-rendering="crispEdges"/>
</g>
<g filter="url(#filter12_d_160_30609)">
<path d="M19.9038 79.8795C19.9038 75.3021 23.6123 71.5935 28.1897 71.5935C32.7671 71.5935 36.4757 75.3021 36.4757 79.8795C36.4757 84.4569 32.7671 88.1654 28.1897 88.1654C23.6123 88.1654 19.9038 84.4569 19.9038 79.8795Z" fill="#FFF5F0" fill-opacity="0.5" shape-rendering="crispEdges"/>
<path d="M28.1899 70.5935C33.3195 70.5936 37.4761 74.75 37.4761 79.8796C37.476 85.0092 33.3195 89.1656 28.1899 89.1658C23.0603 89.1658 18.9039 85.0092 18.9038 79.8796C18.9038 74.75 23.0602 70.5935 28.1899 70.5935Z" stroke="#262626" stroke-width="2" shape-rendering="crispEdges"/>
</g>
<g filter="url(#filter13_d_160_30609)">
<path d="M3.12061 125.971C3.12061 121.691 6.59612 118.215 10.8768 118.215C15.1576 118.215 18.6329 121.691 18.6329 125.971C18.6329 130.252 15.1576 133.728 10.8768 133.728C6.59612 133.728 3.12061 130.252 3.12061 125.971Z" fill="#FFF5F0" fill-opacity="0.5" shape-rendering="crispEdges"/>
<path d="M10.8765 117.215C15.7094 117.215 19.6331 121.138 19.6333 125.971C19.6333 130.804 15.7095 134.728 10.8765 134.728C6.04364 134.728 2.12061 130.804 2.12061 125.971C2.12077 121.138 6.04374 117.216 10.8765 117.215Z" stroke="#262626" stroke-width="2" shape-rendering="crispEdges"/>
</g>
<g filter="url(#filter14_d_160_30609)">
<path d="M2.46338 174.543C2.46338 170.537 5.7058 167.295 9.71103 167.295C13.7163 167.295 16.9586 170.537 16.9586 174.543C16.9586 178.548 13.7163 181.79 9.71103 181.79C5.7058 181.79 2.46338 178.548 2.46338 174.543Z" fill="#FFF5F0" fill-opacity="0.5" shape-rendering="crispEdges"/>
<path d="M9.71143 166.295C14.2688 166.295 17.9585 169.986 17.9585 174.543C17.9582 179.1 14.2686 182.79 9.71143 182.79C5.15409 182.79 1.46364 179.101 1.46338 174.543C1.46338 169.986 5.15393 166.295 9.71143 166.295Z" stroke="#262626" stroke-width="2" shape-rendering="crispEdges"/>
</g>
<g filter="url(#filter15_d_160_30609)">
<path d="M17.9546 221.271C17.9546 217.562 20.9639 214.553 24.6725 214.553C28.381 214.553 31.3902 217.562 31.3902 221.271C31.3902 224.979 28.381 227.988 24.6725 227.988C20.9639 227.988 17.9546 224.979 17.9546 221.271Z" fill="#FFF5F0" fill-opacity="0.5" shape-rendering="crispEdges"/>
<path d="M24.6724 213.553C28.9332 213.553 32.3901 217.01 32.3901 221.271C32.3901 225.531 28.9332 228.988 24.6724 228.988C20.4116 228.988 16.9546 225.531 16.9546 221.271C16.9546 217.01 20.4116 213.553 24.6724 213.553Z" stroke="#262626" stroke-width="2" shape-rendering="crispEdges"/>
</g>
<g filter="url(#filter16_d_160_30609)">
<path d="M49.5088 261.747C49.5088 258.335 52.2849 255.559 55.6967 255.559C59.1086 255.559 61.8848 258.335 61.8848 261.747C61.8848 265.158 59.1086 267.935 55.6967 267.935C52.2849 267.935 49.5088 265.158 49.5088 261.747Z" fill="#FFF5F0" fill-opacity="0.5" shape-rendering="crispEdges"/>
<path d="M55.6963 254.559C59.6603 254.559 62.8845 257.782 62.8848 261.746C62.8848 265.71 59.6604 268.935 55.6963 268.935C51.7323 268.934 48.5088 265.71 48.5088 261.746C48.509 257.782 51.7325 254.559 55.6963 254.559Z" stroke="#262626" stroke-width="2" shape-rendering="crispEdges"/>
</g>
<g filter="url(#filter17_d_160_30609)">
<path d="M92.0195 289.953C92.0195 286.816 94.5625 284.273 97.6989 284.273C100.835 284.273 103.378 286.816 103.378 289.953C103.378 293.089 100.835 295.632 97.6989 295.632C94.5625 295.632 92.0195 293.089 92.0195 289.953Z" fill="#FFF5F0" fill-opacity="0.5" shape-rendering="crispEdges"/>
<path d="M97.6992 283.273C101.388 283.273 104.378 286.264 104.378 289.953C104.378 293.641 101.388 296.632 97.6992 296.632C94.0107 296.632 91.0197 293.642 91.0195 289.953C91.0195 286.264 94.0106 283.273 97.6992 283.273Z" stroke="#262626" stroke-width="2" shape-rendering="crispEdges"/>
</g>
<g filter="url(#filter18_d_160_30609)">
<path d="M139.616 303.6C139.616 300.761 141.926 298.451 144.766 298.451C147.605 298.451 149.915 300.761 149.915 303.6C149.915 306.44 147.605 308.75 144.766 308.75C141.926 308.75 139.616 306.44 139.616 303.6Z" fill="#FFF5F0" fill-opacity="0.5" shape-rendering="crispEdges"/>
<path d="M144.766 297.451C148.158 297.451 150.915 300.208 150.915 303.6C150.915 306.992 148.158 309.75 144.766 309.75C141.374 309.749 138.616 306.992 138.616 303.6C138.616 300.208 141.374 297.451 144.766 297.451Z" stroke="#262626" stroke-width="2" shape-rendering="crispEdges"/>
</g>
<g filter="url(#filter19_d_160_30609)">
<path d="M193.38 307.351C195.931 307.351 197.999 305.283 197.999 302.732C197.999 300.18 195.931 298.112 193.38 298.112C190.828 298.112 188.76 300.18 188.76 302.732C188.76 305.283 190.828 307.351 193.38 307.351Z" fill="#FFF5F0" fill-opacity="0.5" shape-rendering="crispEdges"/>
<path d="M193.38 297.112C196.483 297.112 198.999 299.628 198.999 302.732C198.999 305.835 196.483 308.351 193.38 308.351C190.276 308.351 187.76 305.835 187.76 302.732C187.76 299.628 190.276 297.112 193.38 297.112Z" stroke="#262626" stroke-width="2" shape-rendering="crispEdges"/>
</g>
<g filter="url(#filter20_d_160_30609)">
<path d="M235.912 287.304C235.912 285.036 237.755 283.193 240.023 283.193C242.29 283.193 244.134 285.036 244.134 287.304C244.134 289.571 242.29 291.415 240.023 291.415C237.755 291.415 235.912 289.571 235.912 287.304Z" fill="#FFF5F0" fill-opacity="0.5" shape-rendering="crispEdges"/>
<path d="M240.023 282.193C242.843 282.193 245.134 284.484 245.134 287.304C245.134 290.124 242.843 292.415 240.023 292.415C237.203 292.415 234.912 290.124 234.912 287.304C234.912 284.484 237.203 282.193 240.023 282.193Z" stroke="#262626" stroke-width="2" shape-rendering="crispEdges"/>
</g>
<g filter="url(#filter21_d_160_30609)">
<path d="M277.574 257.36C277.574 255.389 279.185 253.779 281.156 253.779C283.126 253.779 284.737 255.389 284.737 257.36C284.737 259.331 283.126 260.942 281.156 260.942C279.185 260.942 277.574 259.331 277.574 257.36Z" fill="#FFF5F0" fill-opacity="0.5" shape-rendering="crispEdges"/>
<path d="M281.155 252.779C283.678 252.779 285.737 254.837 285.737 257.36C285.737 259.883 283.678 261.942 281.155 261.942C278.632 261.942 276.574 259.883 276.574 257.36C276.574 254.837 278.632 252.779 281.155 252.779Z" stroke="#262626" stroke-width="2" shape-rendering="crispEdges"/>
</g>
</g>
<defs>
<filter id="filter0_d_160_30609" x="69.8052" y="201.625" width="39.1187" height="39.1188" filterUnits="userSpaceOnUse" color-interpolation-filters="sRGB">
<feFlood flood-opacity="0" result="BackgroundImageFix"/>
<feColorMatrix in="SourceAlpha" type="matrix" values="0 0 0 0 0 0 0 0 0 0 0 0 0 0 0 0 0 0 127 0" result="hardAlpha"/>
<feOffset dx="6" dy="6"/>
<feComposite in2="hardAlpha" operator="out"/>
<feColorMatrix type="matrix" values="0 0 0 0 0.0980392 0 0 0 0 0.0980392 0 0 0 0 0.0980392 0 0 0 1 0"/>
<feBlend mode="normal" in2="BackgroundImageFix" result="effect1_dropShadow_160_30609"/>
<feBlend mode="normal" in="SourceGraphic" in2="effect1_dropShadow_160_30609" result="shape"/>
</filter>
<filter id="filter1_d_160_30609" x="113.055" y="228.404" width="38.0576" height="38.0579" filterUnits="userSpaceOnUse" color-interpolation-filters="sRGB">
<feFlood flood-opacity="0" result="BackgroundImageFix"/>
<feColorMatrix in="SourceAlpha" type="matrix" values="0 0 0 0 0 0 0 0 0 0 0 0 0 0 0 0 0 0 127 0" result="hardAlpha"/>
<feOffset dx="6" dy="6"/>
<feComposite in2="hardAlpha" operator="out"/>
<feColorMatrix type="matrix" values="0 0 0 0 0.0980392 0 0 0 0 0.0980392 0 0 0 0 0.0980392 0 0 0 1 0"/>
<feBlend mode="normal" in2="BackgroundImageFix" result="effect1_dropShadow_160_30609"/>
<feBlend mode="normal" in="SourceGraphic" in2="effect1_dropShadow_160_30609" result="shape"/>
</filter>
<filter id="filter2_d_160_30609" x="161.859" y="233.024" width="36.998" height="36.9982" filterUnits="userSpaceOnUse" color-interpolation-filters="sRGB">
<feFlood flood-opacity="0" result="BackgroundImageFix"/>
<feColorMatrix in="SourceAlpha" type="matrix" values="0 0 0 0 0 0 0 0 0 0 0 0 0 0 0 0 0 0 127 0" result="hardAlpha"/>
<feOffset dx="6" dy="6"/>
<feComposite in2="hardAlpha" operator="out"/>
<feColorMatrix type="matrix" values="0 0 0 0 0.0980392 0 0 0 0 0.0980392 0 0 0 0 0.0980392 0 0 0 1 0"/>
<feBlend mode="normal" in2="BackgroundImageFix" result="effect1_dropShadow_160_30609"/>
<feBlend mode="normal" in="SourceGraphic" in2="effect1_dropShadow_160_30609" result="shape"/>
</filter>
<filter id="filter3_d_160_30609" x="208.121" y="215.541" width="35.981" height="35.9811" filterUnits="userSpaceOnUse" color-interpolation-filters="sRGB">
<feFlood flood-opacity="0" result="BackgroundImageFix"/>
<feColorMatrix in="SourceAlpha" type="matrix" values="0 0 0 0 0 0 0 0 0 0 0 0 0 0 0 0 0 0 127 0" result="hardAlpha"/>
<feOffset dx="6" dy="6"/>
<feComposite in2="hardAlpha" operator="out"/>
<feColorMatrix type="matrix" values="0 0 0 0 0.0980392 0 0 0 0 0.0980392 0 0 0 0 0.0980392 0 0 0 1 0"/>
<feBlend mode="normal" in2="BackgroundImageFix" result="effect1_dropShadow_160_30609"/>
<feBlend mode="normal" in="SourceGraphic" in2="effect1_dropShadow_160_30609" result="shape"/>
</filter>
<filter id="filter4_d_160_30609" x="242.769" y="178.201" width="34.9214" height="34.9214" filterUnits="userSpaceOnUse" color-interpolation-filters="sRGB">
<feFlood flood-opacity="0" result="BackgroundImageFix"/>
<feColorMatrix in="SourceAlpha" type="matrix" values="0 0 0 0 0 0 0 0 0 0 0 0 0 0 0 0 0 0 127 0" result="hardAlpha"/>
<feOffset dx="6" dy="6"/>
<feComposite in2="hardAlpha" operator="out"/>
<feColorMatrix type="matrix" values="0 0 0 0 0.0980392 0 0 0 0 0.0980392 0 0 0 0 0.0980392 0 0 0 1 0"/>
<feBlend mode="normal" in2="BackgroundImageFix" result="effect1_dropShadow_160_30609"/>
<feBlend mode="normal" in="SourceGraphic" in2="effect1_dropShadow_160_30609" result="shape"/>
</filter>
<filter id="filter5_d_160_30609" x="258.049" y="132.046" width="33.8618" height="33.8618" filterUnits="userSpaceOnUse" color-interpolation-filters="sRGB">
<feFlood flood-opacity="0" result="BackgroundImageFix"/>
<feColorMatrix in="SourceAlpha" type="matrix" values="0 0 0 0 0 0 0 0 0 0 0 0 0 0 0 0 0 0 127 0" result="hardAlpha"/>
<feOffset dx="6" dy="6"/>
<feComposite in2="hardAlpha" operator="out"/>
<feColorMatrix type="matrix" values="0 0 0 0 0.0980392 0 0 0 0 0.0980392 0 0 0 0 0.0980392 0 0 0 1 0"/>
<feBlend mode="normal" in2="BackgroundImageFix" result="effect1_dropShadow_160_30609"/>
<feBlend mode="normal" in="SourceGraphic" in2="effect1_dropShadow_160_30609" result="shape"/>
</filter>
<filter id="filter6_d_160_30609" x="253.429" y="84.2795" width="32.8447" height="32.8447" filterUnits="userSpaceOnUse" color-interpolation-filters="sRGB">
<feFlood flood-opacity="0" result="BackgroundImageFix"/>
<feColorMatrix in="SourceAlpha" type="matrix" values="0 0 0 0 0 0 0 0 0 0 0 0 0 0 0 0 0 0 127 0" result="hardAlpha"/>
<feOffset dx="6" dy="6"/>
<feComposite in2="hardAlpha" operator="out"/>
<feColorMatrix type="matrix" values="0 0 0 0 0.0980392 0 0 0 0 0.0980392 0 0 0 0 0.0980392 0 0 0 1 0"/>
<feBlend mode="normal" in2="BackgroundImageFix" result="effect1_dropShadow_160_30609"/>
<feBlend mode="normal" in="SourceGraphic" in2="effect1_dropShadow_160_30609" result="shape"/>
</filter>
<filter id="filter7_d_160_30609" x="228.91" y="41.5359" width="31.7852" height="31.7852" filterUnits="userSpaceOnUse" color-interpolation-filters="sRGB">
<feFlood flood-opacity="0" result="BackgroundImageFix"/>
<feColorMatrix in="SourceAlpha" type="matrix" values="0 0 0 0 0 0 0 0 0 0 0 0 0 0 0 0 0 0 127 0" result="hardAlpha"/>
<feOffset dx="6" dy="6"/>
<feComposite in2="hardAlpha" operator="out"/>
<feColorMatrix type="matrix" values="0 0 0 0 0.0980392 0 0 0 0 0.0980392 0 0 0 0 0.0980392 0 0 0 1 0"/>
<feBlend mode="normal" in2="BackgroundImageFix" result="effect1_dropShadow_160_30609"/>
<feBlend mode="normal" in="SourceGraphic" in2="effect1_dropShadow_160_30609" result="shape"/>
</filter>
<filter id="filter8_d_160_30609" x="188.582" y="11.8462" width="30.7256" height="30.7256" filterUnits="userSpaceOnUse" color-interpolation-filters="sRGB">
<feFlood flood-opacity="0" result="BackgroundImageFix"/>
<feColorMatrix in="SourceAlpha" type="matrix" values="0 0 0 0 0 0 0 0 0 0 0 0 0 0 0 0 0 0 127 0" result="hardAlpha"/>
<feOffset dx="6" dy="6"/>
<feComposite in2="hardAlpha" operator="out"/>
<feColorMatrix type="matrix" values="0 0 0 0 0.0980392 0 0 0 0 0.0980392 0 0 0 0 0.0980392 0 0 0 1 0"/>
<feBlend mode="normal" in2="BackgroundImageFix" result="effect1_dropShadow_160_30609"/>
<feBlend mode="normal" in="SourceGraphic" in2="effect1_dropShadow_160_30609" result="shape"/>
</filter>
<filter id="filter9_d_160_30609" x="141.833" y="0" width="29.7085" height="29.7083" filterUnits="userSpaceOnUse" color-interpolation-filters="sRGB">
<feFlood flood-opacity="0" result="BackgroundImageFix"/>
<feColorMatrix in="SourceAlpha" type="matrix" values="0 0 0 0 0 0 0 0 0 0 0 0 0 0 0 0 0 0 127 0" result="hardAlpha"/>
<feOffset dx="6" dy="6"/>
<feComposite in2="hardAlpha" operator="out"/>
<feColorMatrix type="matrix" values="0 0 0 0 0.0980392 0 0 0 0 0.0980392 0 0 0 0 0.0980392 0 0 0 1 0"/>
<feBlend mode="normal" in2="BackgroundImageFix" result="effect1_dropShadow_160_30609"/>
<feBlend mode="normal" in="SourceGraphic" in2="effect1_dropShadow_160_30609" result="shape"/>
</filter>
<filter id="filter10_d_160_30609" x="94.0669" y="6.08203" width="28.6484" height="28.6487" filterUnits="userSpaceOnUse" color-interpolation-filters="sRGB">
<feFlood flood-opacity="0" result="BackgroundImageFix"/>
<feColorMatrix in="SourceAlpha" type="matrix" values="0 0 0 0 0 0 0 0 0 0 0 0 0 0 0 0 0 0 127 0" result="hardAlpha"/>
<feOffset dx="6" dy="6"/>
<feComposite in2="hardAlpha" operator="out"/>
<feColorMatrix type="matrix" values="0 0 0 0 0.0980392 0 0 0 0 0.0980392 0 0 0 0 0.0980392 0 0 0 1 0"/>
<feBlend mode="normal" in2="BackgroundImageFix" result="effect1_dropShadow_160_30609"/>
<feBlend mode="normal" in="SourceGraphic" in2="effect1_dropShadow_160_30609" result="shape"/>
</filter>
<filter id="filter11_d_160_30609" x="50.646" y="30.0708" width="27.6313" height="27.6316" filterUnits="userSpaceOnUse" color-interpolation-filters="sRGB">
<feFlood flood-opacity="0" result="BackgroundImageFix"/>
<feColorMatrix in="SourceAlpha" type="matrix" values="0 0 0 0 0 0 0 0 0 0 0 0 0 0 0 0 0 0 127 0" result="hardAlpha"/>
<feOffset dx="6" dy="6"/>
<feComposite in2="hardAlpha" operator="out"/>
<feColorMatrix type="matrix" values="0 0 0 0 0.0980392 0 0 0 0 0.0980392 0 0 0 0 0.0980392 0 0 0 1 0"/>
<feBlend mode="normal" in2="BackgroundImageFix" result="effect1_dropShadow_160_30609"/>
<feBlend mode="normal" in="SourceGraphic" in2="effect1_dropShadow_160_30609" result="shape"/>
</filter>
<filter id="filter12_d_160_30609" x="17.9038" y="69.5935" width="26.5718" height="26.572" filterUnits="userSpaceOnUse" color-interpolation-filters="sRGB">
<feFlood flood-opacity="0" result="BackgroundImageFix"/>
<feColorMatrix in="SourceAlpha" type="matrix" values="0 0 0 0 0 0 0 0 0 0 0 0 0 0 0 0 0 0 127 0" result="hardAlpha"/>
<feOffset dx="6" dy="6"/>
<feComposite in2="hardAlpha" operator="out"/>
<feColorMatrix type="matrix" values="0 0 0 0 0.0980392 0 0 0 0 0.0980392 0 0 0 0 0.0980392 0 0 0 1 0"/>
<feBlend mode="normal" in2="BackgroundImageFix" result="effect1_dropShadow_160_30609"/>
<feBlend mode="normal" in="SourceGraphic" in2="effect1_dropShadow_160_30609" result="shape"/>
</filter>
<filter id="filter13_d_160_30609" x="1.12061" y="116.215" width="25.5122" height="25.5122" filterUnits="userSpaceOnUse" color-interpolation-filters="sRGB">
<feFlood flood-opacity="0" result="BackgroundImageFix"/>
<feColorMatrix in="SourceAlpha" type="matrix" values="0 0 0 0 0 0 0 0 0 0 0 0 0 0 0 0 0 0 127 0" result="hardAlpha"/>
<feOffset dx="6" dy="6"/>
<feComposite in2="hardAlpha" operator="out"/>
<feColorMatrix type="matrix" values="0 0 0 0 0.0980392 0 0 0 0 0.0980392 0 0 0 0 0.0980392 0 0 0 1 0"/>
<feBlend mode="normal" in2="BackgroundImageFix" result="effect1_dropShadow_160_30609"/>
<feBlend mode="normal" in="SourceGraphic" in2="effect1_dropShadow_160_30609" result="shape"/>
</filter>
<filter id="filter14_d_160_30609" x="0.463379" y="165.295" width="24.4951" height="24.4951" filterUnits="userSpaceOnUse" color-interpolation-filters="sRGB">
<feFlood flood-opacity="0" result="BackgroundImageFix"/>
<feColorMatrix in="SourceAlpha" type="matrix" values="0 0 0 0 0 0 0 0 0 0 0 0 0 0 0 0 0 0 127 0" result="hardAlpha"/>
<feOffset dx="6" dy="6"/>
<feComposite in2="hardAlpha" operator="out"/>
<feColorMatrix type="matrix" values="0 0 0 0 0.0980392 0 0 0 0 0.0980392 0 0 0 0 0.0980392 0 0 0 1 0"/>
<feBlend mode="normal" in2="BackgroundImageFix" result="effect1_dropShadow_160_30609"/>
<feBlend mode="normal" in="SourceGraphic" in2="effect1_dropShadow_160_30609" result="shape"/>
</filter>
<filter id="filter15_d_160_30609" x="15.9546" y="212.553" width="23.4355" height="23.4355" filterUnits="userSpaceOnUse" color-interpolation-filters="sRGB">
<feFlood flood-opacity="0" result="BackgroundImageFix"/>
<feColorMatrix in="SourceAlpha" type="matrix" values="0 0 0 0 0 0 0 0 0 0 0 0 0 0 0 0 0 0 127 0" result="hardAlpha"/>
<feOffset dx="6" dy="6"/>
<feComposite in2="hardAlpha" operator="out"/>
<feColorMatrix type="matrix" values="0 0 0 0 0.0980392 0 0 0 0 0.0980392 0 0 0 0 0.0980392 0 0 0 1 0"/>
<feBlend mode="normal" in2="BackgroundImageFix" result="effect1_dropShadow_160_30609"/>
<feBlend mode="normal" in="SourceGraphic" in2="effect1_dropShadow_160_30609" result="shape"/>
</filter>
<filter id="filter16_d_160_30609" x="47.5088" y="253.559" width="22.376" height="22.376" filterUnits="userSpaceOnUse" color-interpolation-filters="sRGB">
<feFlood flood-opacity="0" result="BackgroundImageFix"/>
<feColorMatrix in="SourceAlpha" type="matrix" values="0 0 0 0 0 0 0 0 0 0 0 0 0 0 0 0 0 0 127 0" result="hardAlpha"/>
<feOffset dx="6" dy="6"/>
<feComposite in2="hardAlpha" operator="out"/>
<feColorMatrix type="matrix" values="0 0 0 0 0.0980392 0 0 0 0 0.0980392 0 0 0 0 0.0980392 0 0 0 1 0"/>
<feBlend mode="normal" in2="BackgroundImageFix" result="effect1_dropShadow_160_30609"/>
<feBlend mode="normal" in="SourceGraphic" in2="effect1_dropShadow_160_30609" result="shape"/>
</filter>
<filter id="filter17_d_160_30609" x="90.0195" y="282.273" width="21.3589" height="21.3588" filterUnits="userSpaceOnUse" color-interpolation-filters="sRGB">
<feFlood flood-opacity="0" result="BackgroundImageFix"/>
<feColorMatrix in="SourceAlpha" type="matrix" values="0 0 0 0 0 0 0 0 0 0 0 0 0 0 0 0 0 0 127 0" result="hardAlpha"/>
<feOffset dx="6" dy="6"/>
<feComposite in2="hardAlpha" operator="out"/>
<feColorMatrix type="matrix" values="0 0 0 0 0.0980392 0 0 0 0 0.0980392 0 0 0 0 0.0980392 0 0 0 1 0"/>
<feBlend mode="normal" in2="BackgroundImageFix" result="effect1_dropShadow_160_30609"/>
<feBlend mode="normal" in="SourceGraphic" in2="effect1_dropShadow_160_30609" result="shape"/>
</filter>
<filter id="filter18_d_160_30609" x="137.616" y="296.451" width="20.2993" height="20.2992" filterUnits="userSpaceOnUse" color-interpolation-filters="sRGB">
<feFlood flood-opacity="0" result="BackgroundImageFix"/>
<feColorMatrix in="SourceAlpha" type="matrix" values="0 0 0 0 0 0 0 0 0 0 0 0 0 0 0 0 0 0 127 0" result="hardAlpha"/>
<feOffset dx="6" dy="6"/>
<feComposite in2="hardAlpha" operator="out"/>
<feColorMatrix type="matrix" values="0 0 0 0 0.0980392 0 0 0 0 0.0980392 0 0 0 0 0.0980392 0 0 0 1 0"/>
<feBlend mode="normal" in2="BackgroundImageFix" result="effect1_dropShadow_160_30609"/>
<feBlend mode="normal" in="SourceGraphic" in2="effect1_dropShadow_160_30609" result="shape"/>
</filter>
<filter id="filter19_d_160_30609" x="186.76" y="296.112" width="19.2397" height="19.2396" filterUnits="userSpaceOnUse" color-interpolation-filters="sRGB">
<feFlood flood-opacity="0" result="BackgroundImageFix"/>
<feColorMatrix in="SourceAlpha" type="matrix" values="0 0 0 0 0 0 0 0 0 0 0 0 0 0 0 0 0 0 127 0" result="hardAlpha"/>
<feOffset dx="6" dy="6"/>
<feComposite in2="hardAlpha" operator="out"/>
<feColorMatrix type="matrix" values="0 0 0 0 0.0980392 0 0 0 0 0.0980392 0 0 0 0 0.0980392 0 0 0 1 0"/>
<feBlend mode="normal" in2="BackgroundImageFix" result="effect1_dropShadow_160_30609"/>
<feBlend mode="normal" in="SourceGraphic" in2="effect1_dropShadow_160_30609" result="shape"/>
</filter>
<filter id="filter20_d_160_30609" x="233.912" y="281.193" width="18.2222" height="18.2224" filterUnits="userSpaceOnUse" color-interpolation-filters="sRGB">
<feFlood flood-opacity="0" result="BackgroundImageFix"/>
<feColorMatrix in="SourceAlpha" type="matrix" values="0 0 0 0 0 0 0 0 0 0 0 0 0 0 0 0 0 0 127 0" result="hardAlpha"/>
<feOffset dx="6" dy="6"/>
<feComposite in2="hardAlpha" operator="out"/>
<feColorMatrix type="matrix" values="0 0 0 0 0.0980392 0 0 0 0 0.0980392 0 0 0 0 0.0980392 0 0 0 1 0"/>
<feBlend mode="normal" in2="BackgroundImageFix" result="effect1_dropShadow_160_30609"/>
<feBlend mode="normal" in="SourceGraphic" in2="effect1_dropShadow_160_30609" result="shape"/>
</filter>
<filter id="filter21_d_160_30609" x="275.574" y="251.779" width="17.1626" height="17.1628" filterUnits="userSpaceOnUse" color-interpolation-filters="sRGB">
<feFlood flood-opacity="0" result="BackgroundImageFix"/>
<feColorMatrix in="SourceAlpha" type="matrix" values="0 0 0 0 0 0 0 0 0 0 0 0 0 0 0 0 0 0 127 0" result="hardAlpha"/>
<feOffset dx="6" dy="6"/>
<feComposite in2="hardAlpha" operator="out"/>
<feColorMatrix type="matrix" values="0 0 0 0 0.0980392 0 0 0 0 0.0980392 0 0 0 0 0.0980392 0 0 0 1 0"/>
<feBlend mode="normal" in2="BackgroundImageFix" result="effect1_dropShadow_160_30609"/>
<feBlend mode="normal" in="SourceGraphic" in2="effect1_dropShadow_160_30609" result="shape"/>
</filter>
</defs>
</svg>
